{"title":"Mrs Washington Goes To Smith [2009] DVDRip XviD-SPRiNTER","uid":5837618,"size":744993453,"categoryP":"video","categoryS":"movies","magnet":"?xt=urn:btih:9836178ce94b520ce5a21e31ed76e907d872336b&amp;dn=Mrs+Washington+Goes+To+Smith+%5B2009%5D+DVDRip+XviD-SPRiNTER&amp;tr=udp%3A%2F%2Ftracker.openbittorrent.com%3A80&amp;tr=udp%3A%2F%2Fopen.demonii.com%3A1337&amp;tr=udp%3A%2F%2Ftracker.coppersurfer.tk%3A6969&amp;tr=udp%3A%2F%2Fexodus.desync.com%3A6969","seeders":0,"leechers":0,"uploader":"xenl","files":3,"time":1284790264,"description":"Mrs Washington Goes To Smith [2009] DVDRip XviD-SPRiNTER\n\nDetails\n\nFormat : AVI\nFormat/Info : Audio Video Interleave\nFile size : 701 MiB\nDuration : 1h 29mn\nOverall bit rate : 1 098 Kbps\nWriting application : VirtualDubMod 1.5.10.2 (build 2540/release)\nWriting library : VirtualDubMod build 2540/release\n\nVideo\n\nID : 0\nFormat : MPEG-4 Visual\nFormat profile : Simple@L3\nFormat settings, BVOP : Yes\nFormat settings, QPel : No\nFormat settings, GMC : No warppoints\nFormat settings, Matrix : Default (H.263)\nCodec ID : XVID\nCodec ID/Hint : XviD\nDuration : 1h 29mn\nBit rate : 1 023 Kbps\nWidth : 640 pixels\nHeight : 352 pixels\nDisplay aspect ratio : 16:9\nFrame rate : 23.976 fps\nColor space : YUV\nChroma subsampling : 4:2:0\nBit depth : 8 bits\nScan type : Progressive\nBits/(Pixel*Frame) : 0.189\nStream size : 653 MiB (93%)\nWriting library : XviD 1.0.3 (UTC 2004-12-20)\n\nAudio\n\nID : 1\nFormat : MPEG Audio\nFormat version : Version 1\nFormat profile : Layer 3\nCodec ID : 55\nCodec ID/Hint : MP3\nDuration : 1h 29mn\nBit rate mode : Variable\nBit rate : 62.5 Kbps\nMinimum bit rate : 40.0 Kbps\nChannel(s) : 1 channel\nSampling rate : 48.0 KHz\nStream size : 40.0 MiB (6%)\nAlignment : Aligned on interleaves\nInterleave, duration : 24 ms (0.58 video frame)\nInterleave, preload duration : 356 ms\nWriting library : LAME3.95\nEncoding settings : -m m -V 5 -q 3 -lowpass 17 --vbr-old -b 40","torrent":{"xt":"urn:btih:9836178ce94b520ce5a21e31ed76e907d872336b","amp;dn":"Mrs+Washington+Goes+To+Smith+%5B2009%5D+DVDRip+XviD-SPRiNTER","amp;tr":["udp%3A%2F%2Ftracker.openbittorrent.com%3A80","udp%3A%2F%2Fopen.demonii.com%3A1337","udp%3A%2F%2Ftracker.coppersurfer.tk%3A6969","udp%3A%2F%2Fexodus.desync.com%3A6969"],"infoHash":"9836178ce94b520ce5a21e31ed76e907d872336b","infoHashBuffer":{"type":"Buffer","data":[152,54,23,140,233,75,82,12,229,162,30,49,237,118,233,7,216,114,51,107]},"announce":[],"urlList":[]}}